<svg xmlns="http://www.w3.org/2000/svg" xmlns:xlink="http://www.w3.org/1999/xlink" width="203.377" height="52.424" viewBox="0 0 203.377 52.424">
  <defs>
    <clipPath id="clip-path">
      <path id="Path_752" data-name="Path 752" d="M10.115,34.378l4.937,2.85q10.1-5.852,20.226-11.673L30.338,22.7Zm0-11.681,4.948,2.857L32.8,15.313l7.643,4.413V40.213l-22.7,13.107,4.95,2.858,22.7-13.11,0-26.213L32.812,9.592ZM0,16.865,0,43.076l12.58,7.265,22.7-13.1-4.942-2.863L12.592,44.621,4.948,40.208V19.719L27.65,6.612,22.7,3.755Z" transform="translate(0 -3.755)" fill="none"/>
    </clipPath>
  </defs>
  <g id="Group_816" data-name="Group 816" transform="translate(-200 -2640.667)">
    <path id="Path_751" data-name="Path 751" d="M40.443,40.213,17.741,53.32l4.95,2.858,22.7-13.11,0-26.213L32.812,9.592,10.116,22.7l4.948,2.856L32.8,15.312l7.644,4.413ZM10.115,34.378l4.937,2.85q10.1-5.852,20.226-11.673L30.338,22.7Zm20.223-.005L12.592,44.62,4.949,40.207V19.719l22.7-13.108L22.7,3.754,0,16.864,0,43.075,12.58,50.34l22.7-13.1Z" transform="translate(200 2636.913)" fill="#1c242b" fill-rule="evenodd"/>
    <g id="Group_698" data-name="Group 698" transform="translate(200 2640.667)" clip-path="url(#clip-path)">
      <rect id="Rectangle_1688" data-name="Rectangle 1688" width="45.392" height="52.424" transform="translate(0 -0.001)" fill="#1c242b"/>
    </g>
    <path id="Path_753" data-name="Path 753" d="M246.828,53.215c-5.808,0-9.93-4.684-9.93-10.3v-.094c0-5.62,4.028-10.21,9.835-10.21s9.93,4.684,9.93,10.3V43c0,5.62-4.028,10.21-9.835,10.21m-.094,6.65c10.117,0,17.47-7.634,17.47-16.953v-.094c0-9.32-7.26-16.861-17.375-16.861s-17.469,7.634-17.469,16.954V43c0,9.32,7.259,16.86,17.375,16.86m-36.859,0a21.282,21.282,0,0,0,14-5.2V40.429H209.64v6.229H216.9v4.684a11.508,11.508,0,0,1-6.791,1.966c-5.807,0-9.929-4.4-9.929-10.4v-.094c0-5.574,4.168-10.21,9.414-10.21a12.073,12.073,0,0,1,8.571,3.325l4.543-5.48c-3.419-2.9-6.978-4.5-12.88-4.5A16.827,16.827,0,0,0,192.64,42.911V43c0,9.694,7.025,16.86,17.235,16.86M170.3,53.215c-5.807,0-9.929-4.684-9.929-10.3v-.094c0-5.62,4.028-10.21,9.835-10.21s9.929,4.684,9.929,10.3V43c0,5.62-4.028,10.21-9.835,10.21m-.094,6.65c10.117,0,17.469-7.634,17.469-16.953v-.094c0-9.32-7.26-16.861-17.375-16.861S152.83,33.591,152.83,42.911V43c0,9.32,7.26,16.86,17.375,16.86M127.165,59.3h23.558V52.747H134.378V26.519h-7.213Z" transform="translate(139.174 2626.292)" fill="#1c242b" fill-rule="evenodd"/>
  </g>
</svg>
