<svg xmlns="http://www.w3.org/2000/svg" xmlns:xlink="http://www.w3.org/1999/xlink" width="212.332" height="56.341" viewBox="0 0 212.332 56.341">
  <defs>
    <clipPath id="clip-path">
      <path id="Path_756" data-name="Path 756" d="M1799.969,28.172l12.06,12.061,3.908-3.909-8.152-8.152,8.152-8.154-3.908-3.907Zm40.368-8.154,8.153,8.154-8.153,8.152,3.911,3.909,12.06-12.061-12.06-12.061Zm-9.436-7.146V45.76l-6.671,6.672,3.909,3.908,8.291-8.292V16.11l3.907-3.909-4.383-4.382ZM1828.139,0l-8.292,8.292v31.94l-3.91,3.908,4.384,4.382,5.054-5.053V10.583l6.671-6.673Z" transform="translate(-1799.969 -0.001)" fill="none"/>
    </clipPath>
  </defs>
  <g id="Group_819" data-name="Group 819" transform="translate(-1139.001 -2638.708)">
    <path id="Path_754" data-name="Path 754" d="M2063.96,50.712c-5.807,0-9.929-4.684-9.929-10.3v-.094c0-5.62,4.028-10.21,9.835-10.21s9.93,4.684,9.93,10.3V40.5c0,5.62-4.028,10.21-9.836,10.21m-.094,6.65c10.117,0,17.469-7.634,17.469-16.953v-.094c0-9.32-7.26-16.861-17.375-16.861s-17.469,7.634-17.469,16.954V40.5c0,9.32,7.259,16.86,17.375,16.86m-36.859,0a21.279,21.279,0,0,0,14-5.2V37.926h-14.238v6.229h7.259v4.684a11.508,11.508,0,0,1-6.791,1.966c-5.807,0-9.929-4.4-9.929-10.4v-.094c0-5.574,4.168-10.21,9.414-10.21a12.07,12.07,0,0,1,8.57,3.325l4.543-5.48c-3.419-2.9-6.978-4.5-12.88-4.5a16.827,16.827,0,0,0-17.188,16.954V40.5c0,9.694,7.025,16.86,17.235,16.86m-39.575-6.65c-5.807,0-9.929-4.684-9.929-10.3v-.094c0-5.62,4.028-10.21,9.835-10.21s9.929,4.684,9.929,10.3V40.5c0,5.62-4.028,10.21-9.835,10.21m-.094,6.65c10.116,0,17.469-7.634,17.469-16.953v-.094c0-9.32-7.259-16.861-17.375-16.861s-17.469,7.634-17.469,16.954V40.5c0,9.32,7.26,16.86,17.375,16.86M1944.3,56.8h23.558V50.244h-16.345V24.016H1944.3Z" transform="translate(-730.003 2627.49)" fill="#1c242b" fill-rule="evenodd"/>
    <path id="Path_755" data-name="Path 755" d="M1825.375,10.582V43.47l-5.055,5.053-4.384-4.382,3.91-3.908V8.292L1828.138,0l3.908,3.909Zm18.873,29.65-3.91-3.909,8.152-8.153-8.152-8.153,3.91-3.908,12.06,12.061Zm-28.311-20.215-8.152,8.153,8.152,8.153-3.908,3.909-12.061-12.062,12.061-12.061Zm24.4-7.817-3.908,3.909v31.94l-8.292,8.292-3.908-3.909,6.671-6.672V12.871l5.053-5.053Z" transform="translate(-660.967 2638.708)" fill="#1c242b" fill-rule="evenodd"/>
    <g id="Group_703" data-name="Group 703" transform="translate(1139.001 2638.709)">
      <g id="Group_702" data-name="Group 702" clip-path="url(#clip-path)">
        <rect id="Rectangle_1690" data-name="Rectangle 1690" width="56.339" height="56.341" transform="translate(-0.001 -0.001)" fill="#1c242b"/>
      </g>
    </g>
  </g>
</svg>
