<svg xmlns="http://www.w3.org/2000/svg" xmlns:xlink="http://www.w3.org/1999/xlink" width="202.989" height="52.425" viewBox="0 0 202.989 52.425">
  <defs>
    <clipPath id="clip-path">
      <path id="Path_749" data-name="Path 749" d="M603.228,56.178l5.9-3.4q0-19.391,0-38.787l9.4,5.428V12.592l-15.31-8.838Zm18.26-10.544q13.57-7.835,27.139-15.668l-18.275-10.55v6.822l6.442,3.719-9.4,5.426,0-28.218-5.91-3.412q0,20.94,0,41.881" transform="translate(-603.222 -3.754)" fill="none"/>
    </clipPath>
  </defs>
  <g id="Group_817" data-name="Group 817" transform="translate(-514.687 -2640.667)">
    <path id="Path_748" data-name="Path 748" d="M609.129,13.987l9.4,5.429V12.592l-15.31-8.838.005,52.424,5.9-3.4q0-19.391,0-38.787m18.268,21.4,0-28.218-5.91-3.412q0,20.94,0,41.881,13.57-7.834,27.139-15.668l-18.274-10.55v6.822l6.442,3.72Z" transform="translate(-88.535 2636.913)" fill="#1c242b" fill-rule="evenodd"/>
    <g id="Group_694" data-name="Group 694" transform="translate(514.687 2640.667)" clip-path="url(#clip-path)">
      <rect id="Rectangle_1686" data-name="Rectangle 1686" width="45.405" height="52.424" transform="translate(0 0)" fill="#1c242b"/>
    </g>
    <path id="Path_750" data-name="Path 750" d="M849.306,53.216c-5.808,0-9.93-4.684-9.93-10.3v-.094c0-5.62,4.028-10.21,9.835-10.21s9.93,4.684,9.93,10.3v.093c0,5.62-4.028,10.21-9.835,10.21m-.094,6.65c10.117,0,17.469-7.634,17.469-16.953v-.094c0-9.32-7.26-16.861-17.375-16.861s-17.469,7.634-17.469,16.954v.093c0,9.32,7.259,16.86,17.375,16.86m-36.859,0a21.279,21.279,0,0,0,14-5.2V40.43H812.119v6.229h7.259v4.684a11.508,11.508,0,0,1-6.791,1.966c-5.807,0-9.929-4.4-9.929-10.4v-.094c0-5.574,4.168-10.21,9.414-10.21a12.07,12.07,0,0,1,8.57,3.325l4.543-5.48c-3.419-2.9-6.978-4.5-12.88-4.5a16.827,16.827,0,0,0-17.188,16.954v.093c0,9.694,7.025,16.86,17.235,16.86m-39.575-6.65c-5.807,0-9.929-4.684-9.929-10.3v-.094c0-5.62,4.028-10.21,9.835-10.21s9.929,4.684,9.929,10.3v.093c0,5.62-4.028,10.21-9.835,10.21m-.094,6.65c10.116,0,17.469-7.634,17.469-16.953v-.094c0-9.32-7.259-16.861-17.375-16.861s-17.469,7.634-17.469,16.954v.093c0,9.32,7.26,16.86,17.375,16.86M729.643,59.3H753.2V52.748H736.856V26.52h-7.213Z" transform="translate(-149.005 2626.292)" fill="#1c242b" fill-rule="evenodd"/>
  </g>
</svg>
