<svg xmlns="http://www.w3.org/2000/svg" xmlns:xlink="http://www.w3.org/1999/xlink" width="136.114" height="35.494" viewBox="0 0 136.114 35.494">
  <defs>
    <clipPath id="clip-path">
      <path id="Path_813" data-name="Path 813" d="M28.1,5.3A17.747,17.747,0,1,0,45.851,23.044,17.747,17.747,0,0,0,28.1,5.3Z" fill="none"/>
    </clipPath>
  </defs>
  <g id="Group_726" data-name="Group 726" transform="translate(-10.357 -5.296)">
    <path id="Path_802" data-name="Path 802" d="M79.2,35.457l-.035-14.5L72.055,32.9h-2.52L62.461,21.272V35.457H57.209V11.3h4.63l9.043,15.014,8.9-15.014h4.59l.069,24.161Z" fill="#45586c"/>
    <rect id="Rectangle_1699" data-name="Rectangle 1699" width="5.591" height="24.161" transform="translate(90.176 11.297)" fill="#45586c"/>
    <path id="Path_803" data-name="Path 803" d="M107.088,15.784v6.385h11.183v4.488H107.088v8.8H101.5V11.3h18.258v4.487Z" fill="#45586c"/>
    <path id="Path_804" data-name="Path 804" d="M132.872,16.784l3.83,9.25H129.04ZM130.145,11.3,119.376,35.457h5.729l2.14-5.178h11.217l2.141,5.178h5.868L135.671,11.3Z" fill="#45586c"/>
    <g id="Group_729" data-name="Group 729">
      <g id="Group_728" data-name="Group 728" clip-path="url(#clip-path)">
        <path id="Path_805" data-name="Path 805" d="M29.527,23.2l-.843-.056c-.217-.014-5.386-.4-11.587-4.8C10.824,13.888,8.337,6.59,8.234,6.281a2,2,0,0,1,3.793-1.269c.021.064,2.2,6.388,7.385,10.066a22.825,22.825,0,0,0,8.87,3.973,23.309,23.309,0,0,1,10.909-3.459c8.761-.816,13.9,3.193,14.116,3.363a2,2,0,1,1-2.492,3.129c-.157-.121-4.182-3.168-11.253-2.51-6.53.609-9.381,3.032-9.408,3.056Z" fill="#ec653e"/>
        <path id="Path_806" data-name="Path 806" d="M20.594,20.188A1.993,1.993,0,0,1,18.9,17.152c.232-.373,2.508-3.752,10.824-7.491a27.263,27.263,0,0,1,18.558-.875,2,2,0,0,1-1.4,3.747,23.6,23.6,0,0,0-15.585.805c-7.077,3.185-9,5.935-9.022,5.962a2.033,2.033,0,0,1-1.68.888" fill="#ec653e"/>
        <path id="Path_807" data-name="Path 807" d="M28.106,30.532a29.627,29.627,0,0,1-12.464-3.117C7.293,23.483,2.371,15.012,2.166,14.654a2,2,0,0,1,3.469-1.991c.045.077,4.524,7.749,11.712,11.134,7.119,3.354,11.9,2.681,11.944,2.674a2,2,0,0,1,.64,3.949,12.184,12.184,0,0,1-1.825.112" fill="#ec653e"/>
        <path id="Path_808" data-name="Path 808" d="M25.763,37.454a31.575,31.575,0,0,1-10.874-2.1C6.229,32.156.594,24.141.358,23.8a2,2,0,0,1,3.284-2.282c.051.073,5.177,7.329,12.632,10.078,7.384,2.724,12.087,1.646,12.135,1.635a2,2,0,0,1,.975,3.879,15.8,15.8,0,0,1-3.621.343" fill="#ec653e"/>
        <path id="Path_809" data-name="Path 809" d="M15.646,15.36a2,2,0,0,1-1.8-2.863c.087-.179,2.22-4.449,9.213-8.244l.124-.062A51.65,51.65,0,0,1,42.4,0a2,2,0,0,1,0,4A48.441,48.441,0,0,0,24.911,7.8c-5.71,3.116-7.455,6.43-7.472,6.463a2.019,2.019,0,0,1-1.793,1.1" fill="#ec653e"/>
        <path id="Path_810" data-name="Path 810" d="M25.873,43.265a2,2,0,0,1-1.44-3.387,17.02,17.02,0,0,0,3.472-8.033,17.074,17.074,0,0,0-.943-9.939,2,2,0,0,1,3.7-1.523A21.036,21.036,0,0,1,31.833,32.6c-1.192,6.535-4.384,9.912-4.52,10.052a1.991,1.991,0,0,1-1.44.613" fill="#ec653e"/>
        <path id="Path_811" data-name="Path 811" d="M37.791,45a2,2,0,0,1-1.8-2.875c.014-.028,1.813-3.929,1.376-10.742a26.6,26.6,0,0,0-3.62-12.206A2,2,0,0,1,37.2,17.148,30.6,30.6,0,0,1,41.363,31.16c.507,7.92-1.679,12.52-1.772,12.712A2,2,0,0,1,37.791,45" fill="#ec653e"/>
        <path id="Path_812" data-name="Path 812" d="M47.333,37.892c-.048,0-.1,0-.145,0a2,2,0,0,1-1.852-2.138,32.115,32.115,0,0,0,.013-4.365,26.62,26.62,0,0,0-3.622-12.21,2,2,0,1,1,3.449-2.026,30.6,30.6,0,0,1,4.167,14.011,36.088,36.088,0,0,1-.017,4.876,2,2,0,0,1-1.993,1.857" fill="#ec653e"/>
      </g>
    </g>
  </g>
</svg>
