<svg xmlns="http://www.w3.org/2000/svg" xmlns:xlink="http://www.w3.org/1999/xlink" width="136.113" height="35.492" viewBox="0 0 136.113 35.492">
  <defs>
    <clipPath id="clip-path">
      <path id="Path_788" data-name="Path 788" d="M14.348,25.07A17.747,17.747,0,1,0,32.095,7.324,17.746,17.746,0,0,0,14.348,25.07" transform="translate(3007.652 -128.324)" fill="none"/>
    </clipPath>
  </defs>
  <g id="Group_719" data-name="Group 719" transform="translate(-3022 107)">
    <g id="Group_717" data-name="Group 717" transform="translate(-15 10.385)">
      <path id="Path_777" data-name="Path 777" d="M98.191,41.1l-.035-14.5-7.11,11.943h-2.52L81.452,26.915V41.1H76.2V16.94H80.83l9.043,15.014,8.9-15.014h4.59l.069,24.161Z" transform="translate(3007.652 -128.324)" fill="#fff"/>
      <rect id="Rectangle_1695" data-name="Rectangle 1695" width="5.591" height="24.161" transform="translate(3116.819 -111.385)" fill="#fff"/>
      <path id="Path_778" data-name="Path 778" d="M145.425,21.427v6.385h11.183V32.3H145.425v8.8h-5.591V16.939h18.258v4.487Z" transform="translate(2988.306 -128.324)" fill="#fff"/>
      <path id="Path_779" data-name="Path 779" d="M179.019,22.427l3.831,9.25h-7.663Zm-2.727-5.488L165.523,41.1h5.73l2.14-5.178H184.61L186.75,41.1h5.868l-10.8-24.161Z" transform="translate(2980.495 -128.324)" fill="#fff"/>
    </g>
    <g id="Mask_Group_33" data-name="Mask Group 33" transform="translate(0 14)" clip-path="url(#clip-path)">
      <g id="Group_716" data-name="Group 716" transform="translate(3013.533 -124.447)">
        <path id="Path_780" data-name="Path 780" d="M14.032,7.816s2.312,6.936,8.123,11.06,10.561,4.436,10.561,4.436,3.187-2.874,10.561-3.562c8.055-.75,12.685,2.937,12.685,2.937" transform="translate(-5.791 -4.017)" fill="none" stroke="#fff" stroke-linecap="round" stroke-width="4"/>
        <path id="Path_783" data-name="Path 783" d="M27.46,20.715s1.974-3.81,8.636-7.044c7.279-3.533,17.071-1.481,17.071-1.481" transform="translate(-9.623 -5.096)" fill="none" stroke="#fff" stroke-linecap="round" stroke-width="4"/>
        <g id="Group_715" data-name="Group 715">
          <path id="Path_781" data-name="Path 781" d="M6.249,19.62s4.579,8.316,12.391,12.157S31.7,34.837,31.7,34.837" transform="translate(-3.57 -7.385)" fill="none" stroke="#fff" stroke-linecap="round" stroke-width="4"/>
          <path id="Path_782" data-name="Path 782" d="M2.5,32.838s5.413,7.8,13.58,10.812,13.309,1.7,13.309,1.7" transform="translate(-2.5 -11.157)" fill="none" stroke="#fff" stroke-linecap="round" stroke-width="4"/>
          <path id="Path_784" data-name="Path 784" d="M20.465,13.307s1.859-3.828,8.368-7.361A46.63,46.63,0,0,1,37.808,2.5" transform="translate(-7.627 -2.5)" fill="none" stroke="#fff" stroke-linecap="round" stroke-width="4"/>
          <path id="Path_785" data-name="Path 785" d="M39,29.5a19.107,19.107,0,0,1,1.062,11.06c-1.106,6.054-4,9.061-4,9.061" transform="translate(-12.079 -10.205)" fill="none" stroke="#fff" stroke-linecap="round" stroke-width="4"/>
          <path id="Path_786" data-name="Path 786" d="M51.02,25.326a28.474,28.474,0,0,1,3.892,13.091c.481,7.519-1.573,11.745-1.573,11.745" transform="translate(-16.346 -9.014)" fill="none" stroke="#fff" stroke-linecap="round" stroke-width="4"/>
          <path id="Path_787" data-name="Path 787" d="M62.562,25.326a28.469,28.469,0,0,1,3.893,13.091,33.8,33.8,0,0,1-.014,4.64" transform="translate(-19.639 -9.014)" fill="none" stroke="#fff" stroke-linecap="round" stroke-width="4"/>
        </g>
      </g>
    </g>
  </g>
</svg>
