<svg xmlns="http://www.w3.org/2000/svg" width="82.297" height="89.662" viewBox="0 0 82.297 89.662">
  <path id="flag-svgrepo-com" d="M67.835,36.942,83.513,14.136A1.477,1.477,0,0,0,82.3,11.822H37.965V5.911a1.476,1.476,0,0,0-1.478-1.478H5.455V1.478a1.478,1.478,0,1,0-2.955,0V87.184a1.478,1.478,0,1,0,2.955,0V50.242H21.748a7.312,7.312,0,0,0-1.516,4.433,7.4,7.4,0,0,0,7.388,7.388H82.3a1.477,1.477,0,0,0,1.218-2.314ZM5.455,7.388H35.009v39.9H5.455ZM27.621,59.108a4.433,4.433,0,0,1,0-8.866h8.866a1.476,1.476,0,0,0,1.478-1.478V14.777H79.486L64.823,36.106a1.481,1.481,0,0,0,0,1.674L79.486,59.108Z" transform="translate(-2 0.5)" fill="#ee6536" stroke="#ee6536" stroke-width="1"/>
</svg>
