<svg xmlns="http://www.w3.org/2000/svg" width="101.723" height="76.301" viewBox="0 0 101.723 76.301">
  <path id="team" d="M92.186,55.73V50.92a1.508,1.508,0,0,0-.032-.162A12.658,12.658,0,0,0,88.21,27.32a1.545,1.545,0,0,0-.792-.242h-.826a1.5,1.5,0,0,0-.254.051c-.172,0-.334-.051-.509-.051A12.674,12.674,0,0,0,79.5,50.758a1.509,1.509,0,0,0-.032.162v4.822a9.854,9.854,0,0,0-3.09.664A21.909,21.909,0,0,0,58.487,44.645c0-.175.051-.34.051-.518v-6.1a1.548,1.548,0,0,0-.089-.442,15.754,15.754,0,0,0,8.214-13.774c0-.413-.092-.8-.121-1.208a1.561,1.561,0,0,0-.1-.973,15.726,15.726,0,0,0-31.172,0,1.589,1.589,0,0,0-.134.617,1.332,1.332,0,0,0,.054.2c-.041.458-.14.9-.14,1.367a15.754,15.754,0,0,0,8.214,13.774,1.548,1.548,0,0,0-.089.442v6.094c0,.178.041.343.051.518A21.909,21.909,0,0,0,25.335,56.4a9.854,9.854,0,0,0-3.083-.658V50.92a1.508,1.508,0,0,0-.032-.162,12.626,12.626,0,0,0-4.981-23.542,1.561,1.561,0,0,0-.029-.531A7.931,7.931,0,1,0,4.317,34.6,12.556,12.556,0,0,0,9.568,50.758a1.507,1.507,0,0,0-.032.162v4.81A9.924,9.924,0,0,0,0,65.622V79.53A4.768,4.768,0,0,0,4.768,84.3H27.02a1.589,1.589,0,0,0,1.45-.954,9.606,9.606,0,0,0,4.113.954H69.14a9.606,9.606,0,0,0,4.113-.954,1.589,1.589,0,0,0,1.45.954H96.954a4.768,4.768,0,0,0,4.768-4.768V65.622a9.924,9.924,0,0,0-9.537-9.893ZM85.829,30.258A9.537,9.537,0,0,1,94.7,36.364l-8-2.273a7.988,7.988,0,0,0-5.143.273L77.007,36.2a9.537,9.537,0,0,1,8.821-5.944Zm-9.537,9.537a1.589,1.589,0,0,0,.594-.114l5.862-2.365a4.819,4.819,0,0,1,3.08-.165l9.095,2.584a1.529,1.529,0,0,0,.432.035v.025a9.537,9.537,0,1,1-19.073,0ZM89.007,52.058v3.63a3.179,3.179,0,1,1-6.358,0v-3.63a11.415,11.415,0,0,0,6.358,0ZM50.861,11.185a12.6,12.6,0,0,1,11.975,8.809L51.157,16.754a7.925,7.925,0,0,0-4.927.223l-7.254,2.731a12.6,12.6,0,0,1,11.886-8.522ZM38.235,23.811c0-.153.038-.292.045-.445l9.085-3.414a4.74,4.74,0,0,1,2.956-.134l13.148,3.646c0,.118.035.229.035.346a12.626,12.626,0,0,1-25.253,0ZM55.366,38.885v5.239a4.5,4.5,0,0,1-9.006,0V38.885a14.2,14.2,0,0,0,9.006,0ZM15.894,30.258A9.537,9.537,0,0,1,25.113,37.5a19.508,19.508,0,0,1-6.806-1.952,1.589,1.589,0,0,0-1.659,0,24.871,24.871,0,0,1-10.093,2.3,9.537,9.537,0,0,1,9.339-7.591ZM4.768,28.668a4.738,4.738,0,0,1,9.273-1.4,12.636,12.636,0,0,0-8,4.6,4.749,4.749,0,0,1-1.272-3.195ZM6.482,41.012a31.079,31.079,0,0,0,11-2.3,26.044,26.044,0,0,0,7.852,2.038,9.486,9.486,0,0,1-18.854.273ZM19.073,52.058v3.63a3.179,3.179,0,1,1-6.358,0v-3.63a12.569,12.569,0,0,0,3.179.451A12.569,12.569,0,0,0,19.073,52.058ZM4.768,81.119A1.589,1.589,0,0,1,3.179,79.53V65.622a6.761,6.761,0,0,1,6.755-6.755h.486a6.3,6.3,0,0,0,11-.089,1.549,1.549,0,0,0,.439.089A6.72,6.72,0,0,1,24.1,59.3a21.759,21.759,0,0,0-1.227,7.162v8.122a9.645,9.645,0,0,0,2.562,6.536Zm70.907-6.536a6.542,6.542,0,0,1-6.536,6.536H32.583a6.542,6.542,0,0,1-6.536-6.536V66.461a18.73,18.73,0,0,1,18.1-18.688,7.61,7.61,0,0,0,13.434,0,18.73,18.73,0,0,1,18.1,18.688ZM98.544,79.53a1.589,1.589,0,0,1-1.589,1.589H76.292a9.645,9.645,0,0,0,2.575-6.536V66.461A21.759,21.759,0,0,0,77.64,59.3a6.717,6.717,0,0,1,2.228-.432h.486a6.3,6.3,0,0,0,11-.089,1.549,1.549,0,0,0,.439.089,6.761,6.761,0,0,1,6.755,6.755Z" transform="translate(0 -7.997)" fill="#ee6536"/>
</svg>
