<svg xmlns="http://www.w3.org/2000/svg" width="119.99" height="87.62" viewBox="0 0 119.99 87.62">
  <path id="love" d="M91.481,4.917A13.775,13.775,0,0,0,82.5,7.809a13.359,13.359,0,0,0-17.638.968h-.008v.008a13.4,13.4,0,0,0,.044,18.97l8.143,8.071L81.173,43.9a1.983,1.983,0,0,0,2.8-.008l8.1-8.1,8.1-8.1a13.245,13.245,0,0,0,.131-18.816l-.107-.115-.063-.063a12.97,12.97,0,0,0-8.658-3.768Zm-.861,3.808A9.5,9.5,0,0,1,97.344,11.5l.083.1.071.059a9.14,9.14,0,0,1-.131,13.208l-8.1,8.1-6.711,6.711-6.731-6.679-8.131-8.071a9.352,9.352,0,0,1-.032-13.366l.008.012a9.467,9.467,0,0,1,13.438-.032,1.983,1.983,0,0,0,2.8-.008,9.465,9.465,0,0,1,6.711-2.816Zm-18.1,4.958A3.628,3.628,0,0,0,69.231,16.3a5.742,5.742,0,0,0,0,3.986,1.985,1.985,0,1,0,3.728-1.364,2.32,2.32,0,0,1,0-1.261c.028-.079,0-.044.008-.063a1.983,1.983,0,0,0-.436-3.919h-.008ZM2.983,40.97A1.983,1.983,0,0,0,1,42.954V82.616A1.983,1.983,0,0,0,2.983,84.6H22.814A1.983,1.983,0,0,0,24.8,82.616v-3.9L64.777,91.98q.065.022.131.04a16.607,16.607,0,0,0,12.9-2l38.516-20.93.024-.024.936-.535v-.008a7.345,7.345,0,0,0-2.32-13.592,7.9,7.9,0,0,0-3.4.254,1.984,1.984,0,0,0-.21.079l-21.124,9.8a7.355,7.355,0,0,0,.087-.781,8.149,8.149,0,0,0-8.166-8.079H64.535c-.071-.135-.159-.325-.23-.448a19.886,19.886,0,0,0-3.518-4.613A20.577,20.577,0,0,0,46.35,45.3L24.8,45.309V42.954a1.983,1.983,0,0,0-1.983-1.983Zm1.983,3.966H8.909V70.685a1.987,1.987,0,1,0,3.974.008l-.008-25.757h7.956v35.7H4.966ZM46.342,49.26a16.583,16.583,0,0,1,13.672,7.1c.293.428.567.873.821,1.325.309.563.524.9.69,1.293l.512,1.2H82.145A4.091,4.091,0,0,1,83.9,68.008l-.186.079a4.347,4.347,0,0,1-1.579.305L54.56,68.4v3.958H82.137a8.128,8.128,0,0,0,2.292-.365,1.983,1.983,0,0,0,.754-.222l.052-.024.218-.1,27.4-12.7a3.487,3.487,0,0,1,1.527-.091c.853.123,1.662.357,2.392,2.09a3.244,3.244,0,0,1-1.44,4.137l-.928.528L75.89,86.526q-.073.044-.143.1A13.174,13.174,0,0,1,65.9,88.161L25.039,74.6a1.987,1.987,0,0,0-.242-.056V49.272l21.545-.008Z" transform="translate(-1 -4.907)" fill="#ee6536"/>
</svg>
